<?xml version="1.0" encoding="utf-8"?>
<!-- Generator: Adobe Illustrator 16.0.0, SVG Export Plug-In . SVG Version: 6.00 Build 0)  -->
<!DOCTYPE svg PUBLIC "-//W3C//DTD SVG 1.1//EN" "http://www.w3.org/Graphics/SVG/1.1/DTD/svg11.dtd">
<svg version="1.1"
	 id="svg2" xmlns:dc="http://purl.org/dc/elements/1.1/" xmlns:cc="http://creativecommons.org/ns#" xmlns:rdf="http://www.w3.org/1999/02/22-rdf-syntax-ns#" xmlns:svg="http://www.w3.org/2000/svg" xmlns:sodipodi="http://sodipodi.sourceforge.net/DTD/sodipodi-0.dtd" xmlns:inkscape="http://www.inkscape.org/namespaces/inkscape"
	 xmlns="http://www.w3.org/2000/svg" xmlns:xlink="http://www.w3.org/1999/xlink" x="0px" y="0px" width="884.5px"
	 height="268.676px" viewBox="0 0 884.5 268.676" enable-background="new 0 0 884.5 268.676" xml:space="preserve">
<g>
	<g>
		<path fill-rule="evenodd" clip-rule="evenodd" fill="#DB202C" d="M434.389,169.061c7.896-0.896,15.771-2.119,23.693-2.636
			c60.522-3.951,121.031-8.187,181.597-11.35c17.442-0.909,35.063,1.226,52.583,2.282c21.288,1.286,42.551,2.95,63.83,4.374
			c30.587,2.043,61.177,4.059,91.771,6.003c9.299,0.59,18.615,0.891,27.923,1.326c0,0.533,0,1.069,0,1.604
			c-0.526,3.101-1.482,6.201-1.509,9.309c-0.15,17.349-0.211,34.699,0,52.046c0.07,5.802-1.257,8.82-7.972,8.771
			c-8.223-0.063-16.454,1.066-24.676,1.77c-29.694,2.532-59.375,5.229-89.081,7.617c-23.612,1.899-47.266,3.289-70.876,5.231
			c-8.1,0.668-16.12,2.33-24.178,3.537c-3.744,0-7.49,0-11.235,0c-2.06-0.452-4.099-1.151-6.181-1.317
			c-68.561-5.477-137.126-10.906-205.69-16.339C434.389,217.213,434.389,193.137,434.389,169.061z M818.488,197.517
			c-3.729-4.496-6.486-8.91-10.307-12.018c-2.29-1.861-6.307-2.36-9.417-2.068c-1.19,0.11-2.801,4.106-2.869,6.374
			c-0.303,10.132-0.134,20.282-0.103,30.424c0.013,4.138,0.896,7.141,6.238,7.126c5.16-0.02,6.438-2.564,6.366-6.956
			c-0.078-4.963-0.017-9.93-0.017-16.534c4.001,4.286,6.805,7.289,11.21,12.008c2.969-4.227,5.457-7.773,9.157-13.045
			c0,7.104,0.071,11.617-0.019,16.126c-0.09,4.538-0.182,8.521,6.403,8.396c6.137-0.12,5.938-3.863,5.914-8.061
			c-0.052-9.342,0.202-18.693-0.147-28.023c-0.104-2.768-2.021-7.868-2.733-7.802c-3.607,0.328-7.653,1.263-10.476,3.401
			C824.236,189.48,821.843,193.503,818.488,197.517z M665.432,203.595c0,7.709-0.484,13.374,0.274,18.869
			c0.251,1.814,3.664,4.345,5.718,4.427c1.955,0.078,5.713-2.549,5.769-4.092c0.469-12.994,0.266-26.013,0.266-38.879
			c-14-4.364-15.621,9.142-22.716,13.747c-7.264-3.781-8.157-16.935-20.492-13.371c0,13.793,0,27.496,0,41.222
			c3.385,0,6.184,0,9.899,0c0-8.088,0-15.625,0-24.412c4.58,4.953,8.093,8.753,11.889,12.856
			C659.155,210.522,661.608,207.814,665.432,203.595z M528.713,209.176c7.756-0.022,9.783,5.149,11.294,9.727
			c2.694,8.154,7.837,8.555,15.456,6.345c-3.479-6.732-6.621-12.813-8.661-16.762c1.529-6.272,4.461-11.533,3.329-15.688
			c-0.979-3.59-6.24-7.671-10.201-8.426c-7.122-1.355-14.688-0.383-21.882-0.383c0,14.555,0,28.261,0,41.876c3.62,0,6.463,0,9.914,0
			C528.216,220.238,528.449,215.021,528.713,209.176z M772.114,199.679c0-3.464-0.117-6.935,0.032-10.392
			c0.172-4.032-0.706-6.511-5.622-6.527c-4.674-0.012-6.132,2.135-6.14,6.255c-0.008,5.865-0.084,11.727-0.104,17.59
			c-0.021,5.316-1.367,9.918-7.718,9.9c-6.14-0.017-7.99-4.261-7.971-9.744c0.025-6.129,0.45-12.319-0.317-18.354
			c-0.262-2.044-3.646-5.153-5.562-5.126c-2.01,0.031-5.455,3.082-5.679,5.102c-0.73,6.58-0.56,13.307-0.222,19.953
			c0.664,12.969,7.668,19.354,20.533,19.198c12.192-0.154,18.475-6.79,18.755-19.857
			C772.157,205.012,772.108,202.344,772.114,199.679z M473.48,214.131c3.748,0,6.662,0.188,9.545-0.037
			c7.465-0.574,12.401-5.755,13.175-13.58c0.773-7.832-3.654-15.273-11.021-16.174c-7.472-0.913-15.141-0.2-22.801-0.2
			c0,14.614,0,28.377,0,42.597c3.65,0,6.899,0,10.441,0C473.038,222.566,473.229,218.921,473.48,214.131z M575.914,225.163
			c10.975,0,21.06,0,31.853,0c-0.181-2.549-0.331-4.681-0.55-7.746c-7.202,0-13.719,0-20.605,0c0.213-3.589,0.364-6.17,0.563-9.527
			c6.493,0,12.524,0,18.392,0c2.126-5.991,0.374-8.191-5.177-7.885c-4.413,0.242-8.849,0.048-13.845,0.048
			c0.337-3.546,0.553-5.787,0.826-8.672c6.857,0,13.175,0,20.151,0c-0.2-2.921-0.35-5.091-0.494-7.186c-10.772,0-20.801,0-31.113,0
			C575.914,197.986,575.914,211.241,575.914,225.163z M711.188,205.796c0-5.577,0.466-11.217-0.227-16.71
			c-0.281-2.229-2.713-5.223-4.827-5.956c-3.733-1.295-6.747,0.413-6.741,5.129c0.008,11.69-0.274,23.39,0.26,35.055
			c0.088,1.918,3.469,4.69,5.789,5.291c4.459,1.157,5.926-1.855,5.792-6.072C711.056,216.959,711.189,211.376,711.188,205.796z"/>
		<path fill-rule="evenodd" clip-rule="evenodd" fill="#DB202C" d="M563.984,20.656c0,37.923,0,75.254,0,113.362
			c-9.126,0-18.294,0-28.444,0c0-18.377,0-36.895,0-55.41c-0.74-0.298-1.479-0.596-2.22-0.896
			c-8.646,13.013-17.293,26.026-26.799,40.331c-9.812-15.063-18.874-28.976-27.936-42.885c-0.573,0.141-1.146,0.282-1.72,0.423
			c0,13.235,0,26.468,0,39.701c0,20.088,0,20.076-19.778,19.819c-4.45-0.056-8.901-0.009-13.773-0.009c0-42.372,0-83.38,0-125.358
			c10.504,0.825,20.578,1.294,30.534,2.643c2.2,0.298,4.435,3.408,5.883,5.705c8.78,13.934,17.338,28.009,26.753,43.311
			c8.468-12.959,16.397-24.556,23.707-36.531c3.19-5.226,6.652-7.522,12.903-6.398C549.849,19.675,556.772,19.941,563.984,20.656z"
			/>
		<path fill-rule="evenodd" clip-rule="evenodd" fill="#DB202C" d="M670.091,82.866c-1.673,7.771-2.456,15.872-5.202,23.249
			c-6.231,16.75-18.203,27.396-36.379,29.879c-18.048,2.464-33.756-2.646-44.774-17.326c-16.281-21.691-18.888-45.814-7.235-70.235
			c14.452-30.288,55.52-34.564,77.856-8.743C664.984,51.977,669.248,66.573,670.091,82.866z M641.694,80.417
			c-1.681-5.54-2.756-11.364-5.189-16.549c-3.272-6.976-9.001-11.176-17.249-10.452c-8.175,0.721-13.358,5.702-15.407,13.088
			c-1.523,5.496-2.228,11.612-1.554,17.245c1.769,14.844,10.382,23.635,20.955,22.716
			C633.833,105.546,640.826,95.258,641.694,80.417z"/>
		<path fill-rule="evenodd" clip-rule="evenodd" fill="#DB202C" d="M702.897,76.37c4.81-13.875,8.959-25.424,12.773-37.083
			c1.296-3.963,3.286-5.505,7.521-5.038c11.688,1.289,23.437,2.079,35.101,3.552c1.781,0.226,4.623,3.031,4.638,4.665
			c0.281,30.465,0.205,60.934,0.205,92.069c-6.791,0-13.825,0-22.161,0c0-27.992,0-56.071,0-84.15
			c-0.737-0.125-1.475-0.25-2.211-0.376c-11.605,28.105-23.209,56.213-35.549,86.094c-15.626-36.606-30.479-71.404-45.991-107.738
			c9.989,0.913,18.887,1.433,27.656,2.781c1.715,0.264,3.481,3.539,4.29,5.768C693.614,49.166,697.77,61.523,702.897,76.37z"/>
		<path fill-rule="evenodd" clip-rule="evenodd" fill="#DB202C" d="M815.877,76.286c0,8.317,0,15.925,0,24.082
			c-7.397,0-14.492,0-21.517,0c-2.14,6.057-0.98,9.18,5.655,8.919c5.83-0.229,11.675-0.047,18.223-0.047c0,9.069,0,17.132,0,25.644
			c-15.288,0-30.367,0-46.312,0c0-31.97,0-63.555,0-96.092c14.264,1.374,28.283,2.586,42.247,4.264
			c1.478,0.175,3.633,3.016,3.747,4.733c0.441,6.608,0.179,13.261,0.179,20.788c-8.354-0.373-16.225-0.728-24.006-1.076
			c-1.448,6.775-1.451,6.8,7.23,7.605C805.835,75.523,810.352,75.84,815.877,76.286z"/>
		<path fill-rule="evenodd" clip-rule="evenodd" fill="#DB202C" d="M826.182,101.989c5.74,3.351,10.362,6.467,15.365,8.74
			c1.687,0.766,4.344-0.604,6.558-1c-0.727-2.081-0.9-4.708-2.3-6.122c-2.398-2.42-5.592-4.048-8.404-6.069
			c-12.26-8.819-17.217-23.227-12.619-37.541c2.526-7.865,7.52-13.543,16.075-15.042c9.159-1.605,16.787,1.865,23.309,7.941
			c1.111,1.034,1.634,3.451,1.384,5.066c-0.969,6.276-2.358,12.49-3.779,19.681c-4.073-2.928-7.172-5.78-10.804-7.517
			c-1.93-0.925-4.783,0.084-7.22,0.222c0.958,1.963,1.517,4.317,2.968,5.791c2.219,2.254,5.076,3.875,7.625,5.815
			c12.981,9.881,17.097,27.681,9.797,42.296c-7.578,15.17-31.261,16.951-41.387,3.032c-0.82-1.128-1.293-2.994-1.037-4.348
			C823.046,115.901,824.67,108.926,826.182,101.989z"/>
		<path fill-rule="evenodd" clip-rule="evenodd" fill="#DB202C" d="M528.775,202.423c-0.204-4.364-0.324-6.916-0.53-11.309
			c4.116,1.051,7.438,1.665,10.522,2.885c0.624,0.248,0.904,3.806,0.393,4.084C536.203,199.683,532.961,200.754,528.775,202.423z"/>
		<path fill-rule="evenodd" clip-rule="evenodd" fill="#DB202C" d="M473.438,206.209c0-5.644,0-8.74,0-13.562
			c3.816,1.075,7.289,1.562,10.158,3.138c0.977,0.54,1.293,5.028,0.432,5.646C481.336,203.362,477.938,204.303,473.438,206.209z"/>
	</g>
	<g>
		<path fill-rule="evenodd" clip-rule="evenodd" fill="#DB202C" d="M412.524,6.717c-22.041,38.174-43.926,76.44-66.297,114.418
			c-3.284,5.575-2.863,9.099,0.556,14.197c25.902,38.622,51.496,77.451,77.168,116.229c2.006,3.028,3.882,6.145,6.56,10.398
			c-23.885-1.924-46.181-4.809-68.514-5.135c-14.897-0.22-22.791-6.418-29.047-19.184c-7.726-15.77-17.456-30.554-27.191-47.257
			c-3.497,7.759-6.497,14.34-9.434,20.951c-4.664,10.495-9.1,21.098-14.08,31.44c-1.017,2.112-4.113,4.768-6.086,4.639
			c-20.18-1.307-40.326-3.137-61.749-4.927c2.484-4.472,4.401-7.892,6.289-11.327c16.082-29.268,32.047-58.602,48.342-87.746
			c2.732-4.888,2.463-8.343-0.533-13.042c-17.08-26.787-33.77-53.818-51.311-81.918c6.43-1.455,11.977-2.76,17.547-3.958
			c13.321-2.866,26.674-5.59,39.971-8.562c4.414-0.986,7.278-0.336,9.826,4.039c6.712,11.521,14.042,22.683,21.733,34.958
			c1.713-2.767,3.179-4.834,4.341-7.058c6.177-11.841,12.708-23.526,18.237-35.665c2.973-6.53,6.98-9.715,14.018-11.041
			c21.263-4.008,42.398-8.687,63.573-13.149c1.003-0.212,1.916-0.858,2.87-1.301C410.385,6.717,411.454,6.717,412.524,6.717z"/>
		<path fill-rule="evenodd" clip-rule="evenodd" fill="#DB202C" d="M241.171,141.652c-0.845,32.994-11.55,59.045-34.421,79.278
			c-43.079,38.113-102.708,20.252-118.274-35.14c-10.628-37.822,4.026-82.338,35.059-106.499
			c45.177-35.174,105.015-12.274,115.511,44.296C240.307,130.385,240.681,137.348,241.171,141.652z M169.946,150.931
			c0-12.282,0.158-24.566-0.063-36.844c-0.122-6.756-3.128-12.317-10.193-13.479c-6.973-1.146-11.83,3.086-14.241,9.257
			c-1.511,3.867-2.154,8.292-2.197,12.479c-0.212,20.822-0.154,41.65-0.038,62.479c0.02,3.427,0.282,7.026,1.343,10.246
			c2.758,8.372,12.25,11.602,18.499,5.523c3.586-3.486,6.198-9.401,6.61-14.44C170.62,174.48,169.969,162.681,169.946,150.931z"/>
		<path fill-rule="evenodd" clip-rule="evenodd" fill="#DB202C" d="M83.887,76.726c0.916,15.618,1.769,30.163,2.665,45.429
			c-12.809,2.08-25.086,4.381-37.458,5.943c-5.394,0.682-7.467,2.57-6.841,8.045c0.478,4.182,0.095,8.461,0.095,13.74
			c12.191-1.407,23.442-2.705,35.298-4.072c0,15.424,0,29.974,0,45.362c-11.68,0.96-23.256,1.906-35.498,2.909
			c0,11.167,0,21.737,0,33.256c-10.289-0.909-19.799-1.518-29.215-2.809c-1.613-0.223-4.031-3.371-4.042-5.177
			c-0.233-40.629-0.246-81.257,0.02-121.882c0.013-1.961,2.657-5.219,4.577-5.651C36.398,86.651,59.403,81.903,83.887,76.726z"/>
	</g>
</g>
</svg>
